<svg width="51" height="51" viewBox="0 0 51 51" fill="none" xmlns="http://www.w3.org/2000/svg">
<path d="M50.229 25.0903C50.229 11.3153 39.004 0.090332 25.229 0.090332C11.454 0.090332 0.229004 11.3153 0.229004 25.0903C0.229004 32.3403 3.354 38.8653 8.304 43.4403C8.304 43.4653 8.304 43.4653 8.279 43.4903C8.529 43.7403 8.829 43.9403 9.079 44.1653C9.229 44.2903 9.354 44.4153 9.504 44.5153C9.954 44.8903 10.454 45.2403 10.929 45.5903C11.104 45.7153 11.254 45.8153 11.429 45.9403C11.904 46.2653 12.404 46.5653 12.929 46.8403C13.104 46.9403 13.304 47.0653 13.479 47.1653C13.979 47.4403 14.504 47.6903 15.054 47.9153C15.254 48.0153 15.454 48.1153 15.654 48.1903C16.204 48.4153 16.754 48.6153 17.304 48.7903C17.504 48.8653 17.704 48.9403 17.904 48.9903C18.504 49.1653 19.104 49.3153 19.704 49.4653C19.879 49.5153 20.054 49.5653 20.254 49.5903C20.954 49.7403 21.654 49.8403 22.379 49.9153C22.479 49.9153 22.579 49.9403 22.679 49.9653C23.529 50.0403 24.379 50.0903 25.229 50.0903C26.079 50.0903 26.929 50.0403 27.754 49.9653C27.854 49.9653 27.954 49.9403 28.054 49.9153C28.779 49.8403 29.479 49.7403 30.179 49.5903C30.354 49.5653 30.529 49.4903 30.729 49.4653C31.329 49.3153 31.954 49.1903 32.529 48.9903C32.729 48.9153 32.929 48.8403 33.129 48.7903C33.679 48.5903 34.254 48.4153 34.779 48.1903C34.979 48.1153 35.179 48.0153 35.379 47.9153C35.904 47.6903 36.429 47.4403 36.954 47.1653C37.154 47.0653 37.329 46.9403 37.504 46.8403C38.004 46.5403 38.504 46.2653 39.004 45.9403C39.179 45.8403 39.329 45.7153 39.504 45.5903C40.004 45.2403 40.479 44.8903 40.929 44.5153C41.079 44.3903 41.204 44.2653 41.354 44.1653C41.629 43.9403 41.904 43.7153 42.154 43.4903C42.154 43.4653 42.154 43.4653 42.129 43.4403C47.104 38.8653 50.229 32.3403 50.229 25.0903ZM37.579 37.5153C30.804 32.9653 19.704 32.9653 12.879 37.5153C11.779 38.2403 10.879 39.0903 10.129 40.0153C6.329 36.1653 3.979 30.8903 3.979 25.0903C3.979 13.3653 13.504 3.84033 25.229 3.84033C36.954 3.84033 46.479 13.3653 46.479 25.0903C46.479 30.8903 44.129 36.1653 40.329 40.0153C39.604 39.0903 38.679 38.2403 37.579 37.5153Z" fill="#26D104"/>
<path d="M25.229 12.4146C20.054 12.4146 15.854 16.6146 15.854 21.7896C15.854 26.8646 19.829 30.9896 25.104 31.1396H25.329H25.504H25.554C30.604 30.9646 34.579 26.8646 34.604 21.7896C34.604 16.6146 30.404 12.4146 25.229 12.4146Z" fill="#26D104"/>
</svg>
