<svg width="50" height="40" viewBox="0 0 50 40" fill="none" xmlns="http://www.w3.org/2000/svg">
<path d="M49.5305 36.7958L2.81318 0.274211C2.68504 0.171619 2.53795 0.0952697 2.38031 0.0495231C2.22266 0.00377643 2.05755 -0.010472 1.8944 0.00759137C1.73125 0.0256547 1.57326 0.0756761 1.42944 0.154799C1.28562 0.233923 1.15879 0.340599 1.0562 0.468736L0.274974 1.44449C0.172141 1.57267 0.095593 1.71987 0.0497102 1.87767C0.00382733 2.03546 -0.0104898 2.20076 0.00757801 2.3641C0.0256458 2.52743 0.075744 2.6856 0.155006 2.82956C0.234267 2.97351 0.341137 3.10042 0.469499 3.20303L47.1868 39.7246C47.315 39.8272 47.462 39.9035 47.6197 39.9493C47.7773 39.995 47.9424 40.0093 48.1056 39.9912C48.2687 39.9731 48.4267 39.9231 48.5706 39.844C48.7144 39.7649 48.8412 39.6582 48.9438 39.53L49.725 38.5543C49.8279 38.4261 49.9044 38.2789 49.9503 38.1211C49.9962 37.9633 50.0105 37.798 49.9924 37.6347C49.9744 37.4713 49.9243 37.3132 49.845 37.1692C49.7657 37.0253 49.6589 36.8984 49.5305 36.7958ZM23.1868 11.4426L33.7169 19.6752C33.5435 14.9925 29.7249 11.2497 25 11.2497C24.3905 11.2508 23.7828 11.3155 23.1868 11.4426ZM26.8132 28.5569L16.2831 20.3244C16.4573 25.0063 20.2759 28.7491 25 28.7491C25.6094 28.7478 26.2171 28.6834 26.8132 28.5569ZM25 8.74973C32.7068 8.74973 39.7722 13.0465 43.5877 19.9994C42.6524 21.7106 41.4968 23.2917 40.1503 24.7024L43.0987 27.007C44.7402 25.2509 46.1309 23.2763 47.2314 21.1392C47.4101 20.7857 47.5032 20.3951 47.5032 19.999C47.5032 19.6029 47.4101 19.2123 47.2314 18.8588C42.9909 10.5926 34.6036 4.99985 25 4.99985C22.1329 4.99985 19.3978 5.54671 16.826 6.46933L20.4517 9.3044C21.9313 8.96848 23.4469 8.74973 25 8.74973ZM25 31.249C17.2932 31.249 10.2286 26.9523 6.41229 19.9994C7.34881 18.2882 8.50578 16.7073 9.85359 15.2972L6.90524 12.9926C5.264 14.7484 3.87352 16.7227 2.77334 18.8596C2.59462 19.2131 2.50151 19.6037 2.50151 19.9998C2.50151 20.3959 2.59462 20.7865 2.77334 21.14C7.00992 29.4061 15.3972 34.9989 25 34.9989C27.8671 34.9989 30.6022 34.4482 33.174 33.5294L29.5483 30.6952C28.0687 31.0303 26.5539 31.249 25 31.249Z" fill="#00D44D"/>
</svg>
