<svg width="50" height="48" viewBox="0 0 50 48" fill="none" xmlns="http://www.w3.org/2000/svg">
<path d="M48.2558 43.5292H45.9302V17.3198C45.9302 15.8779 45.2791 14.5291 44.1395 13.6453L41.2791 11.4128L41.2326 5.71512C41.2326 4.43605 40.186 3.41279 38.907 3.41279H30.9767L27.8605 0.994186C26.186 -0.331395 23.814 -0.331395 22.1395 0.994186L5.86047 13.6453C4.72093 14.5291 4.06977 15.8779 4.06977 17.2965L3.95349 43.5292H1.74419C0.790698 43.5292 0 44.3199 0 45.2734C0 46.2269 0.790698 47.0176 1.74419 47.0176H48.2558C49.2093 47.0176 50 46.2269 50 45.2734C50 44.3199 49.2093 43.5292 48.2558 43.5292ZM12.2093 23.7615V20.2731C12.2093 18.9941 13.2558 17.9476 14.5349 17.9476H19.186C20.4651 17.9476 21.5116 18.9941 21.5116 20.2731V23.7615C21.5116 25.0406 20.4651 26.0871 19.186 26.0871H14.5349C13.2558 26.0871 12.2093 25.0406 12.2093 23.7615ZM30.814 43.5292H19.186V37.1336C19.186 35.2034 20.7442 33.6452 22.6744 33.6452H27.3256C29.2558 33.6452 30.814 35.2034 30.814 37.1336V43.5292ZM37.7907 23.7615C37.7907 25.0406 36.7442 26.0871 35.4651 26.0871H30.814C29.5349 26.0871 28.4884 25.0406 28.4884 23.7615V20.2731C28.4884 18.9941 29.5349 17.9476 30.814 17.9476H35.4651C36.7442 17.9476 37.7907 18.9941 37.7907 20.2731V23.7615Z" fill="#26D104"/>
</svg>
