<svg width="45" height="52" viewBox="0 0 45 52" fill="none" xmlns="http://www.w3.org/2000/svg">
<path d="M22.5 25.7143C29.6016 25.7143 35.3571 19.9587 35.3571 12.8571C35.3571 5.75558 29.6016 0 22.5 0C15.3984 0 9.64286 5.75558 9.64286 12.8571C9.64286 19.9587 15.3984 25.7143 22.5 25.7143ZM31.5 28.9286H29.8225C27.5926 29.9531 25.1116 30.5357 22.5 30.5357C19.8884 30.5357 17.4174 29.9531 15.1775 28.9286H13.5C6.04687 28.9286 0 34.9754 0 42.4286V46.6071C0 49.269 2.1596 51.4286 4.82143 51.4286H40.1786C42.8404 51.4286 45 49.269 45 46.6071V42.4286C45 34.9754 38.9531 28.9286 31.5 28.9286Z" fill="#26D104"/>
</svg>
