<svg width="690" height="649" viewBox="0 0 690 649" fill="none" xmlns="http://www.w3.org/2000/svg">
<path d="M665.005 600.082H632.994V239.314C632.994 219.467 624.031 200.9 608.345 188.736L568.971 158.005L568.331 79.5774C568.331 61.9712 553.926 47.8862 536.32 47.8862H427.161L384.266 14.5945C361.218 -3.65194 328.567 -3.65194 305.518 14.5945L81.4394 188.736C65.7539 200.9 56.7907 219.467 56.7907 238.994L55.1902 600.082H24.7795C11.6548 600.082 0.770996 610.966 0.770996 624.091C0.770996 637.215 11.6548 648.099 24.7795 648.099H665.005C678.13 648.099 689.014 637.215 689.014 624.091C689.014 610.966 678.13 600.082 665.005 600.082ZM168.83 327.983V279.966C168.83 262.36 183.235 247.955 200.841 247.955H264.864C282.47 247.955 296.875 262.36 296.875 279.966V327.983C296.875 345.59 282.47 359.995 264.864 359.995H200.841C183.235 359.995 168.83 345.59 168.83 327.983ZM424.92 600.082H264.864V512.048C264.864 485.479 286.312 464.031 312.881 464.031H376.904C403.473 464.031 424.92 485.479 424.92 512.048V600.082ZM520.954 327.983C520.954 345.59 506.549 359.995 488.943 359.995H424.92C407.314 359.995 392.909 345.59 392.909 327.983V279.966C392.909 262.36 407.314 247.955 424.92 247.955H488.943C506.549 247.955 520.954 262.36 520.954 279.966V327.983Z" fill="#7BFFD0"/>
</svg>
