<svg width="50" height="34" viewBox="0 0 50 34" fill="none" xmlns="http://www.w3.org/2000/svg">
<path d="M25 6.94446C24.08 6.95884 23.1668 7.105 22.2882 7.37849C22.6946 8.09317 22.911 8.90011 22.9167 9.72224C22.9167 10.3606 22.7909 10.9927 22.5466 11.5825C22.3023 12.1723 21.9443 12.7082 21.4929 13.1596C21.0415 13.611 20.5056 13.969 19.9158 14.2133C19.326 14.4576 18.6939 14.5834 18.0555 14.5834C17.2334 14.5777 16.4265 14.3613 15.7118 13.9549C15.1479 15.9104 15.2136 17.9938 15.8996 19.91C16.5856 21.8261 17.8571 23.4778 19.534 24.6312C21.2109 25.7845 23.2081 26.381 25.2429 26.3362C27.2776 26.2914 29.2466 25.6075 30.8711 24.3814C32.4955 23.1553 33.693 21.4492 34.294 19.5047C34.8949 17.5602 34.8688 15.476 34.2194 13.5471C33.5699 11.6183 32.3301 9.94272 30.6754 8.7577C29.0208 7.57268 27.0352 6.93832 25 6.94446ZM49.698 15.3993C44.9905 6.21442 35.671 0 25 0C14.329 0 5.00691 6.21876 0.302036 15.4002C0.103461 15.793 0 16.227 0 16.6671C0 17.1073 0.103461 17.5413 0.302036 17.9341C5.00951 27.119 14.329 33.3334 25 33.3334C35.671 33.3334 44.9931 27.1146 49.698 17.9332C49.8965 17.5404 50 17.1064 50 16.6663C50 16.2261 49.8965 15.7921 49.698 15.3993ZM25 29.1667C16.4366 29.1667 8.58591 24.3924 4.34632 16.6667C8.58591 8.94099 16.4357 4.16667 25 4.16667C33.5643 4.16667 41.4141 8.94099 45.6537 16.6667C41.415 24.3924 33.5643 29.1667 25 29.1667Z" fill="#00D44D"/>
</svg>
