<svg width="689" height="689" viewBox="0 0 689 689" fill="none" xmlns="http://www.w3.org/2000/svg">
<path d="M688.242 344.121C688.242 154.51 533.732 0 344.121 0C154.51 0 0 154.51 0 344.121C0 443.916 43.0152 533.732 111.151 596.706C111.151 597.05 111.151 597.05 110.807 597.395C114.248 600.836 118.378 603.589 121.819 606.686C123.884 608.406 125.604 610.127 127.669 611.503C133.863 616.665 140.746 621.483 147.284 626.301C149.693 628.021 151.757 629.398 154.166 631.118C160.705 635.592 167.587 639.721 174.814 643.507C177.222 644.883 179.975 646.604 182.384 647.98C189.267 651.766 196.493 655.207 204.064 658.304C206.817 659.68 209.57 661.057 212.323 662.089C219.893 665.186 227.464 667.939 235.035 670.348C237.788 671.381 240.541 672.413 243.294 673.101C251.553 675.51 259.812 677.575 268.07 679.639C270.479 680.328 272.888 681.016 275.641 681.36C285.277 683.425 294.912 684.801 304.891 685.834C306.268 685.834 307.644 686.178 309.021 686.522C320.721 687.554 332.421 688.242 344.121 688.242C355.821 688.242 367.521 687.554 378.878 686.522C380.254 686.522 381.63 686.178 383.007 685.834C392.986 684.801 402.622 683.425 412.257 681.36C414.666 681.016 417.075 679.984 419.828 679.639C428.087 677.575 436.69 675.854 444.605 673.101C447.358 672.069 450.111 671.036 452.864 670.348C460.434 667.595 468.349 665.186 475.576 662.089C478.329 661.057 481.081 659.68 483.834 658.304C491.061 655.207 498.288 651.766 505.514 647.98C508.267 646.604 510.676 644.883 513.085 643.507C519.967 639.377 526.85 635.592 533.732 631.118C536.141 629.742 538.206 628.021 540.614 626.301C547.497 621.483 554.035 616.665 560.229 611.503C562.294 609.783 564.015 608.062 566.079 606.686C569.865 603.589 573.65 600.492 577.091 597.395C577.091 597.05 577.091 597.05 576.747 596.706C645.227 533.732 688.242 443.916 688.242 344.121ZM514.117 515.149C420.86 452.519 268.07 452.519 174.125 515.149C158.984 525.129 146.596 536.829 136.272 549.562C83.9656 496.567 51.6182 423.957 51.6182 344.121C51.6182 182.728 182.728 51.6182 344.121 51.6182C505.514 51.6182 636.624 182.728 636.624 344.121C636.624 423.957 604.277 496.567 551.971 549.562C541.991 536.829 529.258 525.129 514.117 515.149Z" fill="#7BFFD0"/>
<path d="M344.121 169.641C272.888 169.641 215.076 227.453 215.076 298.687C215.076 368.544 269.791 425.324 342.401 427.388H345.498H347.906H348.595C418.107 424.979 472.822 368.544 473.167 298.687C473.167 227.453 415.354 169.641 344.121 169.641Z" fill="#7BFFD0"/>
</svg>
