<svg width="50" height="50" viewBox="0 0 50 50" fill="none" xmlns="http://www.w3.org/2000/svg">
<path d="M25.0459 4.0646e-05C31.7262 0.0120366 37.7915 2.6445 42.2696 6.92393L45.8699 3.32363C47.3941 1.79954 50 2.87897 50 5.03442V18.5484C50 19.8846 48.9168 20.9678 47.5806 20.9678H34.0666C31.9112 20.9678 30.8318 18.3618 32.3558 16.8376L36.5645 12.629C33.4532 9.71577 29.4273 8.10206 25.1502 8.06516C15.8359 7.98472 7.98458 15.5225 8.06512 25.146C8.14153 34.2751 15.5427 41.9355 25 41.9355C29.1459 41.9355 33.0642 40.4559 36.1521 37.7464C36.6302 37.327 37.3523 37.3525 37.8021 37.8022L41.8003 41.8003C42.2914 42.2915 42.2671 43.0922 41.7517 43.5577C37.3188 47.5618 31.4442 50 25 50C11.1929 50 0.000100807 38.8072 6.77173e-10 25.0002C-0.000100806 11.209 11.2546 -0.0246569 25.0459 4.0646e-05Z" fill="#00D44D"/>
</svg>
